<svg width="15" height="19" fill="none" viewBox="0 0 20 25" xmlns="http://www.w3.org/2000/svg" class="nav-notification-icon"><path d="M19.0724 18.9615L17.4186 17.3077V10.8974C17.4186 6.96154 15.316 3.66667 11.6493 2.79487V1.92308C11.6493 0.858974 10.7904 0 9.72625 0C8.66215 0 7.80318 0.858974 7.80318 1.92308V2.79487C4.12369 3.66667 2.03395 6.94872 2.03395 10.8974V17.3077L0.380099 18.9615C-0.427593 19.7692 0.136509 21.1538 1.27753 21.1538H18.1622C19.316 21.1538 19.8801 19.7692 19.0724 18.9615ZM14.8545 18.5897H4.59805V10.8974C4.59805 7.71795 6.53395 5.12821 9.72625 5.12821C12.9186 5.12821 14.8545 7.71795 14.8545 10.8974V18.5897ZM9.72625 25C11.1365 25 12.2904 23.8462 12.2904 22.4359H7.16215C7.16215 23.1159 7.4323 23.7681 7.91316 24.249C8.39402 24.7299 9.04621 25 9.72625 25Z" fill="var(--text-color)"/></svg>