<svg width="28" height="27" viewBox="0 0 28 27" fill="none" xmlns="http://www.w3.org/2000/svg" class="sidebar-icon"><path d="M27.4205 13.1638L14.6986 0.392491C14.607 0.300287 14.4982 0.227136 14.3784 0.177225C14.2586 0.127314 14.1302 0.101624 14.0006 0.101624C13.8709 0.101624 13.7425 0.127314 13.6227 0.177225C13.503 0.227136 13.3942 0.300287 13.3026 0.392491L0.580655 13.1638C0.210024 13.5362 0 14.042 0 14.5694C0 15.6648 0.886425 16.5553 1.9767 16.5553H3.31715V25.6684C3.31715 26.2176 3.75881 26.6613 4.30549 26.6613H12.0239V19.7109H15.4831V26.6613H23.6957C24.2423 26.6613 24.684 26.2176 24.684 25.6684V16.5553H26.0245C26.5495 16.5553 27.053 16.3474 27.4236 15.9719C28.1926 15.1962 28.1926 13.9396 27.4205 13.1638Z" fill="currentColor"/></svg>