<svg width="22" height="20" viewBox="0 0 22 20" fill="none" xmlns="http://www.w3.org/2000/svg" class="sidebar-icon"><path d="M2.10526 20H3.15789V6.31579H2.10526C1.54691 6.31579 1.01143 6.53759 0.616617 6.93241C0.221804 7.32722 0 7.8627 0 8.42105V17.8947C0 18.4531 0.221804 18.9886 0.616617 19.3834C1.01143 19.7782 1.54691 20 2.10526 20ZM18.9474 6.31579H11.5789L12.76 2.77053C12.8654 2.45412 12.8941 2.11721 12.8438 1.78753C12.7934 1.45786 12.6655 1.14486 12.4705 0.87431C12.2755 0.603764 12.019 0.383413 11.7222 0.231406C11.4254 0.0793993 11.0967 8.64345e-05 10.7632 0H10.5263L5.26316 5.72421V20H16.8421L20.96 10.9516L21.0526 10.5263V8.42105C21.0526 7.8627 20.8308 7.32722 20.436 6.93241C20.0412 6.53759 19.5057 6.31579 18.9474 6.31579Z" fill="var(--text-color)"/></svg>