<svg width="27" height="27" viewBox="0 0 27 27" fill="none" xmlns="http://www.w3.org/2000/svg" class="sidebar-icon"><path d="M13.28 11.8192C12.4699 11.8192 11.8192 12.4699 11.8192 13.28C11.8192 14.0901 12.4699 14.7408 13.28 14.7408C14.0901 14.7408 14.7408 14.0901 14.7408 13.28C14.7408 12.4699 14.0901 11.8192 13.28 11.8192ZM13.28 0C5.94944 0 0 5.94944 0 13.28C0 20.6106 5.94944 26.56 13.28 26.56C20.6106 26.56 26.56 20.6106 26.56 13.28C26.56 5.94944 20.6106 0 13.28 0ZM16.1883 16.1883L5.312 21.248L10.3717 10.3717L21.248 5.312L16.1883 16.1883Z" fill="currentColor"/></svg>