<svg width="28" height="25" viewBox="0 0 28 25" fill="none" xmlns="http://www.w3.org/2000/svg" class="sidebar-icon"><path d="M0 21.886C0.0717424 21.4673 0.139572 21.0486 0.217184 20.6312C0.95287 16.6925 3.95431 13.5776 7.89166 12.7838C10.8918 12.1786 13.6311 12.8223 16.0631 14.7118C16.1049 14.7444 16.1427 14.7835 16.1988 14.8344C15.4324 15.9738 15.0131 17.2253 14.9785 18.595C14.9439 19.9646 15.2942 21.2207 16.0305 22.4475L0 22.4873V21.886Z" fill="currentColor"/><path d="M15.8792 18.7587C15.8922 15.3633 18.6185 12.6736 22.0601 12.7101C25.4751 12.746 28.0552 15.5766 27.9991 18.8689C27.9443 22.1364 25.2096 24.8496 21.9121 24.8294C18.5826 24.8085 15.8668 22.0751 15.8792 18.7587ZM20.9664 19.6183C20.5405 19.122 20.1407 18.6498 19.7331 18.1834C19.51 17.9291 19.2491 17.8978 19.0424 18.083C18.8526 18.2532 18.8519 18.535 19.0496 18.7665C19.5387 19.3435 20.0305 19.9172 20.5248 20.4877C20.7492 20.7486 20.9625 20.7668 21.2377 20.5529C21.5129 20.339 21.7901 20.1061 22.0654 19.8818C22.955 19.1578 23.8446 18.4332 24.7342 17.708C25.0107 17.483 25.0635 17.2221 24.8855 17.0036C24.7074 16.7851 24.4446 16.7929 24.1635 17.0153C24.0207 17.1282 23.8811 17.2456 23.7396 17.3604L20.9664 19.6183Z" fill="currentColor"/><path d="M9.90762 1.48281e-05C10.6669 -0.000243383 11.4188 0.149234 12.1202 0.439891C12.8216 0.730548 13.4588 1.15668 13.9954 1.69389C14.5319 2.23111 14.9573 2.86886 15.2471 3.57065C15.5368 4.27244 15.6854 5.02449 15.6842 5.78376C15.679 8.97956 13.0754 11.5538 9.85675 11.546C6.7053 11.5382 4.12388 8.94173 4.11736 5.77463C4.11475 2.58992 6.71769 -0.00715941 9.90762 1.48281e-05Z" fill="currentColor"/></svg>