<svg width="24" height="27" viewBox="0 0 24 27" fill="none" xmlns="http://www.w3.org/2000/svg" class="sidebar-icon"><path d="M3.58136 21.2876C3.7613 21.2461 3.94562 21.2267 4.13026 21.2298C5.91039 21.2298 7.69051 21.2298 9.47063 21.2298H23.7125C23.7737 21.2298 23.8353 21.2298 23.8966 21.2298V2.4046C23.8835 2.38445 23.8737 2.36236 23.8674 2.33916C23.8173 1.8629 23.6312 1.41114 23.3312 1.03784C22.906 0.494854 22.3449 0.174803 21.6672 0.0557344C21.5895 0.0422231 21.5097 0.0396897 21.4316 0.0287117C21.3934 0.0212359 21.3556 0.0116506 21.3184 0H3.92252C3.88558 0.0127039 3.84757 0.0220311 3.80894 0.0278671C3.19881 0.0635963 2.60292 0.2267 2.05964 0.506677C1.32918 0.886684 0.76846 1.43558 0.412942 2.18293C0.252887 2.51867 0.145779 2.87717 0.0954241 3.24569C0.0722015 3.41669 0.0624902 3.58981 0.0464454 3.76165C0.0418009 3.81105 0.049401 3.8651 0 3.8993V22.6611C0.0570011 22.7067 0.0451787 22.7722 0.0468676 22.83C0.0547089 23.1441 0.10079 23.456 0.184093 23.7589C0.44672 24.725 1.01589 25.458 1.87766 25.9651C2.35344 26.2397 2.8767 26.4222 3.42007 26.503C3.52267 26.5195 3.62781 26.5212 3.73167 26.5326C3.78108 26.538 3.82921 26.5507 3.87819 26.56H23.8961V23.9177C23.8569 23.9206 23.8176 23.9265 23.7783 23.9265H4.00992C3.80759 23.9274 3.60666 23.8929 3.41627 23.8244C2.99699 23.6732 2.76054 23.3667 2.68243 22.9377C2.63533 22.6851 2.6392 22.4257 2.69383 22.1747C2.80108 21.6887 3.10762 21.405 3.58136 21.2876ZM16.1241 2.65203C16.4733 2.65246 16.815 2.75343 17.1084 2.94286C17.4018 3.13229 17.6344 3.40218 17.7784 3.72027C17.8881 3.47811 18.0496 3.26298 18.2515 3.09009C18.4535 2.91719 18.6909 2.79075 18.9471 2.71969C19.2032 2.64864 19.4719 2.6347 19.734 2.67887C19.9962 2.72303 20.2454 2.82423 20.4641 2.9753C20.6829 3.12637 20.8658 3.32364 20.9999 3.55315C21.134 3.78267 21.2161 4.03884 21.2404 4.30357C21.2646 4.5683 21.2305 4.83512 21.1403 5.08519C21.0501 5.33526 20.9061 5.56248 20.7184 5.75078L17.8452 8.60548C17.8286 8.62173 17.8063 8.63083 17.7831 8.63083C17.7599 8.63083 17.7376 8.62173 17.721 8.60548L14.9503 5.85296C14.8775 5.79119 14.8098 5.7237 14.7477 5.65114C14.5212 5.38768 14.3751 5.06478 14.3266 4.72076C14.2782 4.37673 14.3295 4.02604 14.4744 3.71029C14.6193 3.39455 14.8518 3.127 15.1442 2.93942C15.4366 2.75184 15.7767 2.6521 16.1241 2.65203Z" fill="currentColor"/></svg>