<svg width="24" height="27" viewBox="0 0 24 27" fill="none" xmlns="http://www.w3.org/2000/svg" class="sidebar-icon"><path fill-rule="evenodd" clip-rule="evenodd" d="M2.656 9.296C1.95158 9.296 1.27602 9.01617 0.777924 8.51807C0.279828 8.01998 0 7.34441 0 6.64V2.656C0 1.95158 0.279828 1.27602 0.777924 0.777924C1.27602 0.279828 1.95158 0 2.656 0H7.968C8.67241 0 9.34798 0.279828 9.84608 0.777924C10.3442 1.27602 10.624 1.95158 10.624 2.656V6.64C10.624 7.34441 10.3442 8.01998 9.84608 8.51807C9.34798 9.01617 8.67241 9.296 7.968 9.296H2.656ZM2.656 26.56C1.95158 26.56 1.27602 26.2802 0.777924 25.7821C0.279828 25.284 0 24.6084 0 23.904V13.28C0 12.5756 0.279828 11.9 0.777924 11.4019C1.27602 10.9038 1.95158 10.624 2.656 10.624H7.968C8.67241 10.624 9.34798 10.9038 9.84608 11.4019C10.3442 11.9 10.624 12.5756 10.624 13.28V23.904C10.624 24.6084 10.3442 25.284 9.84608 25.7821C9.34798 26.2802 8.67241 26.56 7.968 26.56H2.656ZM15.936 26.56C15.2316 26.56 14.556 26.2802 14.0579 25.7821C13.5598 25.284 13.28 24.6084 13.28 23.904V21.248C13.28 20.5436 13.5598 19.868 14.0579 19.3699C14.556 18.8718 15.2316 18.592 15.936 18.592H21.248C21.9524 18.592 22.628 18.8718 23.1261 19.3699C23.6242 19.868 23.904 20.5436 23.904 21.248V23.904C23.904 24.6084 23.6242 25.284 23.1261 25.7821C22.628 26.2802 21.9524 26.56 21.248 26.56H15.936ZM15.936 15.936C15.2316 15.936 14.556 15.6562 14.0579 15.1581C13.5598 14.66 13.28 13.9844 13.28 13.28V2.656C13.28 1.95158 13.5598 1.27602 14.0579 0.777924C14.556 0.279828 15.2316 0 15.936 0H21.248C21.9524 0 22.628 0.279828 23.1261 0.777924C23.6242 1.27602 23.904 1.95158 23.904 2.656V13.28C23.904 13.9844 23.6242 14.66 23.1261 15.1581C22.628 15.6562 21.9524 15.936 21.248 15.936H15.936Z" fill="var(--text-color)"/></svg>